<?xml version="1.0" encoding="UTF-8" standalone="no"?>
<svg
   width="64"
   height="64"
   viewBox="0 0 16.933333 16.933334"
   version="1.1"
   id="svg30"
   xmlns="http://www.w3.org/2000/svg"
   xmlns:svg="http://www.w3.org/2000/svg">
  <path
     style="fill:currentColor;fill-opacity:1;stroke-width:0.600373"
     d="M 8.4666667,0 C 3.7928998,0 0,3.7925105 0,8.4662771 c 0,4.6737669 3.7928998,8.4667919 8.4666667,8.4667919 4.6737673,0 8.4666663,-3.793025 8.4666663,-8.4667919 C 16.933333,3.7925105 13.140434,0 8.4666667,0 Z m 0,0.30209134 c 4.5108953,0 8.1648953,3.65329116 8.1648953,8.16418576 0,4.5108949 -3.654,8.1646999 -8.1648953,8.1646999 -4.5108951,0 -8.16437803,-3.653805 -8.16437803,-8.1646999 0,-4.5108946 3.65348293,-8.16418576 8.16437803,-8.16418576 z M 10.618859,2.2021276 a 0.48927942,0.48927947 0 0 0 -0.489346,0.4889041 0.48927942,0.48927947 0 0 0 0.03256,0.1749763 L 8.3684875,4.0074708 V 6.4097914 H 5.6282537 V 5.4314685 H 3.6713865 V 7.3881147 H 4.6495618 V 14.042358 H 12.282738 V 7.3881147 h 0.978176 V 5.4314685 H 11.304046 V 6.4097914 H 8.5638126 V 4.1150295 L 10.267481,3.0312063 A 0.48927942,0.48927947 0 0 0 10.618859,3.1804505 0.48927942,0.48927947 0 0 0 11.108205,2.6910317 0.48927942,0.48927947 0 0 0 10.618859,2.2021276 Z M 5.0412452,6.8014297 H 11.891055 V 13.651235 H 5.0412452 Z m 1.3698587,1.369961 V 9.1497138 H 7.3897958 V 8.1713907 Z m 1.5657003,0 V 9.1497138 H 8.9554959 V 8.1713907 Z m 1.5657002,0 V 9.1497138 H 10.521196 V 8.1713907 Z M 6.4111039,9.7369137 V 10.715237 H 7.3897958 V 9.7369137 Z m 1.5657003,0 V 10.715237 H 8.9554959 V 9.7369137 Z m 1.5657002,0 V 10.715237 H 10.521196 V 9.7369137 Z M 6.4111039,11.302436 v 0.978838 h 0.9786919 v -0.978838 z m 1.5657003,0 v 0.978838 h 0.9786917 v -0.978838 z m 1.5657002,0 v 0.978838 h 0.9786916 v -0.978838 z" />
</svg>