<?xml version="1.0" encoding="UTF-8" standalone="no"?>
<svg
   width="64"
   height="64"
   viewBox="0 0 16.933333 16.933334"
   version="1.1"
   xmlns="http://www.w3.org/2000/svg"
   xmlns:svg="http://www.w3.org/2000/svg">
  <path
     d="m 10.292374,3.1524502 c -0.229127,-3.14e-5 -0.4149372,0.1856109 -0.4151136,0.4147379 5.51e-5,0.050754 0.00942,0.1010598 0.027621,0.1484323 L 8.3833809,4.6839249 V 6.721816 H 6.058837 V 5.8919042 H 4.3988247 V 7.5517295 H 5.2286118 V 13.196532 H 11.703844 V 7.5517295 h 0.829788 V 5.8919042 H 10.873618 V 6.721816 H 8.5490754 V 4.7751665 L 9.9942997,3.8557581 c 0.07812,0.080818 0.1856723,0.1265046 0.2980743,0.1266039 0.229298,3.14e-5 0.415177,-0.1858764 0.415113,-0.4151739 -1.76e-4,-0.229127 -0.185986,-0.4147693 -0.415113,-0.4147379 z M 5.5608778,7.0540438 H 11.37158 V 12.864742 H 5.5608778 Z"
     style="fill:currentColor;fill-opacity:1;stroke:currentColor;stroke-width:0.1;stroke-miterlimit:4;stroke-dasharray:none;stroke-opacity:1" />
  <g
     transform="matrix(0.84830125,0,0,0.84830125,1.2843827,1.2843827)"
     style="stroke-width:1.17883">
    <rect
       style="fill:currentColor;fill-opacity:1;stroke:currentColor;stroke-width:0;stroke-linecap:square;stroke-miterlimit:4;stroke-dasharray:none;stroke-opacity:1;paint-order:markers fill stroke"
       width="0.97869205"
       height="0.97832346"
       x="6.4111042"
       y="8.1713905" />
    <rect
       style="fill:currentColor;fill-opacity:1;stroke:currentColor;stroke-width:0;stroke-linecap:square;stroke-miterlimit:4;stroke-dasharray:none;stroke-opacity:1;paint-order:markers fill stroke"
       width="0.97869205"
       height="0.97832346"
       x="7.9768052"
       y="8.1713905" />
    <rect
       style="fill:currentColor;fill-opacity:1;stroke:currentColor;stroke-width:0;stroke-linecap:square;stroke-miterlimit:4;stroke-dasharray:none;stroke-opacity:1;paint-order:markers fill stroke"
       width="0.97869205"
       height="0.97832346"
       x="9.5425053"
       y="8.1713905" />
    <rect
       style="fill:currentColor;fill-opacity:1;stroke:currentColor;stroke-width:0;stroke-linecap:square;stroke-miterlimit:4;stroke-dasharray:none;stroke-opacity:1;paint-order:markers fill stroke"
       width="0.97869205"
       height="0.97832346"
       x="6.4111032"
       y="9.7369137" />
    <rect
       style="fill:currentColor;fill-opacity:1;stroke:currentColor;stroke-width:0;stroke-linecap:square;stroke-miterlimit:4;stroke-dasharray:none;stroke-opacity:1;paint-order:markers fill stroke"
       width="0.97869205"
       height="0.97832346"
       x="7.9768043"
       y="9.7369137" />
    <rect
       style="fill:currentColor;fill-opacity:1;stroke:currentColor;stroke-width:0;stroke-linecap:square;stroke-miterlimit:4;stroke-dasharray:none;stroke-opacity:1;paint-order:markers fill stroke"
       width="0.97869205"
       height="0.97832346"
       x="9.5425043"
       y="9.7369137" />
    <rect
       style="fill:currentColor;fill-opacity:1;stroke:currentColor;stroke-width:0;stroke-linecap:square;stroke-miterlimit:4;stroke-dasharray:none;stroke-opacity:1;paint-order:markers fill stroke"
       width="0.97869205"
       height="0.97832346"
       x="6.4111042"
       y="11.302436" />
    <rect
       style="fill:currentColor;fill-opacity:1;stroke:currentColor;stroke-width:0;stroke-linecap:square;stroke-miterlimit:4;stroke-dasharray:none;stroke-opacity:1;paint-order:markers fill stroke"
       width="0.97869205"
       height="0.97832346"
       x="7.9768052"
       y="11.302436" />
    <rect
       style="fill:currentColor;fill-opacity:1;stroke:currentColor;stroke-width:0;stroke-linecap:square;stroke-miterlimit:4;stroke-dasharray:none;stroke-opacity:1;paint-order:markers fill stroke"
       width="0.97869205"
       height="0.97832346"
       x="9.5425062"
       y="11.302436" />
  </g>
  <circle
     style="fill:none;fill-opacity:1;stroke:currentColor;stroke-width:0.4;stroke-linecap:square;stroke-miterlimit:4;stroke-dasharray:none;stroke-opacity:1;paint-order:markers fill stroke"
     cx="8.4666662"
     cy="8.4666662"
     r="7.0550385" />
</svg>